<svg width="32" height="32" viewBox="0 0 32 32" fill="none" xmlns="http://www.w3.org/2000/svg">
<path d="M11.8316 18.4911C13.3591 17.0863 14.1597 16.3159 15.0981 14.615C15.9058 13.151 14.4555 14.2388 12.8805 15.2668C13.5339 11.8778 16.3804 5.97402 22.8386 3.33842C22.4279 7.2344 18.4299 14.615 14.7496 20.0225C9.03804 22.5764 4.21849 27.367 4.5716 29.8405C4.86626 31.9047 6.04784 31.819 6.77214 31.506C9.32434 30.4029 13.7661 25.012 17.587 20.2972L23.1267 17.2837L22.8386 16.353L18.8641 18.1728C20.9292 15.0175 23.7192 10.8498 25.8011 4.49435C26.3158 2.92298 25.9355 2.15931 25.2515 1.1557C24.2682 -0.0304133 22.8386 0.364101 21.3067 0.588307C13.4856 1.733 7.56765 12.2544 8.53026 17.0863C9.0067 19.4778 10.4792 19.5402 11.8316 18.4911Z" fill="white"/>
<mask id="path-2-inside-1" fill="white">
<path d="M11.8316 18.4911C13.3591 17.0863 14.1597 16.3159 15.0981 14.615C15.9058 13.151 14.4555 14.2388 12.8805 15.2668C13.5339 11.8778 16.3804 5.97402 22.8386 3.33842C22.4279 7.2344 18.4299 14.615 14.7496 20.0225C9.03804 22.5764 4.21849 27.367 4.5716 29.8405C4.86626 31.9047 6.04784 31.819 6.77214 31.506C9.32434 30.4029 13.7661 25.012 17.587 20.2972L23.1267 17.2837L22.8386 16.353L18.8641 18.1728C20.9292 15.0175 23.7192 10.8498 25.8011 4.49435C26.3158 2.92298 25.9355 2.15931 25.2515 1.1557C24.2682 -0.0304133 22.8386 0.364101 21.3067 0.588307C13.4856 1.733 7.56765 12.2544 8.53026 17.0863C9.0067 19.4778 10.4792 19.5402 11.8316 18.4911Z"/>
</mask>
<path d="M15.0981 14.615L19.476 17.0304L19.476 17.0304L15.0981 14.615ZM11.8316 18.4911L14.8962 22.4419L15.0619 22.3133L15.2163 22.1713L11.8316 18.4911ZM8.53026 17.0863L13.4339 16.1094L13.4339 16.1094L8.53026 17.0863ZM21.3067 0.588307L20.5826 -4.35899L20.5826 -4.35899L21.3067 0.588307ZM25.2515 1.1557L29.3833 -1.65998L29.2509 -1.85439L29.1007 -2.0355L25.2515 1.1557ZM25.8011 4.49435L30.5526 6.05087L30.5526 6.05087L25.8011 4.49435ZM18.8641 18.1728L14.6805 15.4348L5.19251 29.9319L20.9457 22.7189L18.8641 18.1728ZM22.8386 16.353L27.615 14.8746L25.9321 9.43736L20.7571 11.8069L22.8386 16.353ZM23.1267 17.2837L25.516 21.6758L29.1143 19.7184L27.9031 15.8053L23.1267 17.2837ZM17.587 20.2972L15.1977 15.9051L14.3267 16.3789L13.7025 17.1492L17.587 20.2972ZM6.77214 31.506L4.78847 26.9163L4.78847 26.9163L6.77214 31.506ZM4.5716 29.8405L9.52142 29.1339L9.52142 29.1339L4.5716 29.8405ZM14.7496 20.0225L16.7906 24.587L18.0852 24.0081L18.8831 22.8357L14.7496 20.0225ZM22.8386 3.33842L27.8111 3.86261L28.6872 -4.44873L20.9494 -1.29092L22.8386 3.33842ZM12.8805 15.2668L7.9709 14.3202L5.73825 25.8991L15.6133 19.4539L12.8805 15.2668ZM10.7202 12.1996C10.1879 13.1644 9.88558 13.4878 8.44692 14.8109L15.2163 22.1713C16.8326 20.6848 18.1315 19.4673 19.476 17.0304L10.7202 12.1996ZM8.76701 14.5404C8.77051 14.5377 8.95199 14.3927 9.32846 14.2757C9.72361 14.1529 10.4501 14.0318 11.3214 14.2996C13.3254 14.9155 13.527 16.5767 13.4339 16.1094L3.62662 18.0632C4.00997 19.9874 5.18603 22.8755 8.38352 23.8583C11.2991 24.7544 13.7302 23.3463 14.8962 22.4419L8.76701 14.5404ZM13.4339 16.1094C13.4389 16.1346 13.4075 15.9791 13.4505 15.5982C13.492 15.2304 13.5926 14.746 13.7804 14.1621C14.159 12.9852 14.8227 11.62 15.7363 10.2995C17.6717 7.50232 20.0452 5.8262 22.0308 5.5356L20.5826 -4.35899C14.747 -3.5049 10.2511 0.652008 7.51281 4.6097C6.08968 6.66658 4.96552 8.90927 4.26085 11.0998C3.58725 13.1938 3.15339 15.6877 3.62662 18.0632L13.4339 16.1094ZM22.0308 5.5356C22.2622 5.50174 22.4913 5.46468 22.6633 5.43724C22.8509 5.40732 22.9876 5.38604 23.1098 5.3693C23.3697 5.33369 23.4015 5.34304 23.3241 5.34055C23.2254 5.33738 22.8972 5.31467 22.4747 5.13451C22.0172 4.93946 21.6499 4.64548 21.4023 4.34691L29.1007 -2.0355C27.465 -4.00845 25.3442 -4.59964 23.6456 -4.65428C22.3841 -4.69486 20.8795 -4.40244 20.5826 -4.35899L22.0308 5.5356ZM21.1197 3.97139C21.2595 4.17648 21.2795 4.2196 21.2653 4.19255C21.2391 4.14226 21.1575 3.97322 21.0995 3.71745C21.0391 3.45104 21.0311 3.2094 21.0463 3.02998C21.0598 2.87045 21.086 2.82637 21.0495 2.93784L30.5526 6.05087C31.0055 4.66833 31.2217 3.13729 30.8521 1.50678C30.5113 0.00334421 29.7603 -1.10686 29.3833 -1.65998L21.1197 3.97139ZM21.0495 2.93784C19.1903 8.61329 16.7291 12.3045 14.6805 15.4348L23.0478 20.9109C25.1293 17.7304 28.248 13.0863 30.5526 6.05087L21.0495 2.93784ZM20.9457 22.7189L24.9202 20.8991L20.7571 11.8069L16.7826 13.6267L20.9457 22.7189ZM18.0622 17.8314L18.3502 18.7621L27.9031 15.8053L27.615 14.8746L18.0622 17.8314ZM20.7373 12.8915L15.1977 15.9051L19.9764 24.6894L25.516 21.6758L20.7373 12.8915ZM13.7025 17.1492C11.7813 19.5198 9.80885 21.9289 8.0225 23.8725C7.13051 24.843 6.34977 25.6258 5.69983 26.1973C4.97844 26.8316 4.69477 26.9568 4.78847 26.9163L8.75581 36.0956C10.1256 35.5036 11.3542 34.5413 12.3029 33.7073C13.323 32.8103 14.37 31.7439 15.3851 30.6395C17.4129 28.4332 19.5719 25.7894 21.4716 23.4453L13.7025 17.1492ZM4.78847 26.9163C4.94983 26.8466 6.13935 26.3397 7.6268 27.0345C9.38374 27.8552 9.55343 29.3582 9.52142 29.1339L-0.378222 30.5471C-0.115574 32.387 0.792237 34.8792 3.3947 36.0949C5.72768 37.1846 7.87015 36.4784 8.75581 36.0956L4.78847 26.9163ZM9.52142 29.1339C9.67149 30.1852 9.23895 30.6348 9.52135 30.1539C9.71942 29.8166 10.1462 29.2534 10.8751 28.5433C12.3254 27.1307 14.4671 25.6259 16.7906 24.587L12.7087 15.458C9.32057 16.973 6.19673 19.1404 3.89756 21.38C2.7518 22.4961 1.68293 23.7539 0.898169 25.0903C0.197722 26.2831 -0.704844 28.2591 -0.378222 30.5471L9.52142 29.1339ZM20.9494 -1.29092C12.5034 2.15588 8.84679 9.77767 7.9709 14.3202L17.79 16.2135C18.2211 13.9779 20.2574 9.79217 24.7278 7.96776L20.9494 -1.29092ZM15.6133 19.4539C16.2094 19.0648 16.2782 19.0106 16.7259 18.7203C17.0853 18.4872 17.1335 18.4728 17.0255 18.5241C16.9774 18.5469 16.8669 18.5975 16.7089 18.6535C16.5668 18.7038 16.2685 18.8009 15.8648 18.8579C15.343 18.9314 12.4279 19.1596 10.9051 16.3133C10.3268 15.2323 10.3077 14.2376 10.3374 13.7437C10.3686 13.223 10.4798 12.8366 10.5359 12.6608C10.6468 12.3132 10.7605 12.1265 10.7202 12.1996L19.476 17.0304C19.6376 16.7375 19.8827 16.2646 20.0628 15.7002C20.1534 15.4161 20.2836 14.9387 20.3194 14.3432C20.3535 13.7744 20.3244 12.721 19.7226 11.596C18.1528 8.66189 15.1369 8.86158 14.4686 8.95581C13.6212 9.07529 12.9671 9.38118 12.7402 9.48876C11.8737 9.89974 10.5881 10.7923 10.1477 11.0797L15.6133 19.4539ZM18.8831 22.8357C20.83 19.9752 22.8657 16.5883 24.4883 13.3578C26.0193 10.3096 27.5028 6.78702 27.8111 3.86261L17.8662 2.81424C17.7637 3.7858 17.0429 5.9015 15.5521 8.86947C14.153 11.6552 12.3496 14.6624 10.6161 17.2093L18.8831 22.8357Z" fill="url(#paint0_linear)" fill-opacity="0.01" mask="url(#path-2-inside-1)"/>
<defs>
<linearGradient id="paint0_linear" x1="15.2965" y1="0.341094" x2="15.2965" y2="31.6744" gradientUnits="userSpaceOnUse">
<stop stop-color="#B393CA"/>
<stop offset="1" stop-color="#65E5DF"/>
</linearGradient>
</defs>
</svg>
