<svg width="174" height="174" viewBox="0 0 174 174" fill="none" xmlns="http://www.w3.org/2000/svg">
<g clip-path="url(#clip0)">
<path d="M145.399 0L65.1855 20.7175C59.1607 22.337 54.3105 28.7608 54.3105 34.9891V133.837C47.5028 130.332 39.6348 129.48 32.2339 131.446C17.5527 135.261 8.35261 147.587 11.4955 158.967C14.6492 170.348 29.102 176.707 43.7833 172.891C55.4848 169.848 63.565 161.25 64.8483 152.174L65.1855 58.7609L141.31 38.3805V112.087C134.497 108.587 126.625 107.742 119.223 109.717C104.542 113.522 95.3417 125.848 98.4955 137.228C101.638 148.609 116.102 154.967 130.773 151.152C142.485 148.109 150.565 139.511 151.848 130.435L152.175 8.82621C152.175 4.1523 149.293 0.663044 145.389 0H145.399Z" fill="white"/>
</g>
<defs>
<clipPath id="clip0">
<rect width="174" height="174" fill="white"/>
</clipPath>
</defs>
</svg>
