<svg width="179" height="179" viewBox="0 0 179 179" fill="none" xmlns="http://www.w3.org/2000/svg">
<g clip-path="url(#clip0)">
<path fill-rule="evenodd" clip-rule="evenodd" d="M89.4781 89.5C44.7393 89.5 22.375 123.062 22.375 156.625H2.79688C0 156.625 0 158.381 0 159.422V176.203C0 179 1.55506 179 2.79688 179H176.147C178.329 179.067 178.944 177.546 178.944 176.203V159.422C179.168 157.788 178.944 156.625 176.147 156.625H156.569C156.569 123.062 134.206 89.5 89.4781 89.5ZM89.4781 123.062C115.769 123.062 123.029 142.775 123.029 156.625H55.9266C55.9266 143.234 63.7805 123.062 89.4781 123.062Z" fill="white"/>
<path d="M167.69 6.71257C164.431 4.07867 160.786 1.9618 156.883 0.436329L156.648 25.4068C156.592 30.5306 151.591 33.5738 145.393 33.5738H134.206C128.008 33.4843 122.985 30.1055 123.041 24.9704L123.276 0C119.416 1.49913 115.556 3.40086 112.346 6.00755C96.9405 18.4704 96.7387 38.9997 111.898 51.8542C115.064 54.5392 118.879 56.5418 122.716 58.1304C123.029 58.2535 123.029 81.1094 123.029 81.1094C139.687 89.5 149.32 100.688 156.569 111.875V58.7569C160.432 57.2608 164.037 55.1694 167.253 52.5589C182.659 40.096 182.86 19.567 167.701 6.71257H167.69Z" fill="white"/>
<path d="M53.5199 24.8969C53.3765 24.9602 53.2469 25.0513 53.1389 25.1649C53.0309 25.2786 52.9463 25.4125 52.8903 25.5589C52.8343 25.7054 52.8079 25.8614 52.8126 26.0182C52.8172 26.1749 52.8529 26.3291 52.9175 26.472L55.1762 31.5255C55.3889 32.0079 55.2084 32.5573 54.804 32.8936L54.8027 32.9002C52.3327 34.7346 50.2076 36.9923 48.5258 39.5687C48.3736 39.7467 48.1726 39.8764 47.9476 39.9416C47.7226 40.0069 47.4836 40.005 47.2597 39.936L42.0598 37.9491C41.9156 37.8912 41.7609 37.8639 41.6056 37.8691C41.4503 37.8742 41.2978 37.9117 41.1577 37.9789C41.0125 38.0417 40.8812 38.1329 40.7717 38.247C40.6622 38.3612 40.5767 38.4961 40.5201 38.6439L37.9706 45.3177C37.9141 45.4639 37.8873 45.6197 37.8913 45.7763C37.8954 45.933 37.9303 46.0873 37.9943 46.2303C38.0583 46.3733 38.15 46.5022 38.264 46.6096C38.3781 46.7171 38.5124 46.8008 38.659 46.8561L43.8036 48.8121L43.8064 48.8329C44.3101 49.0387 44.5845 49.5535 44.5437 50.0821L44.5399 50.1017C44.0954 53.113 44.1511 56.2071 44.7899 59.271C44.8008 59.4922 44.7512 59.7122 44.6465 59.9074C44.5419 60.1025 44.3862 60.2657 44.196 60.3791L39.0823 62.6671C38.9389 62.7304 38.8094 62.8214 38.7014 62.935C38.5933 63.0487 38.509 63.1826 38.453 63.3291C38.397 63.4755 38.3704 63.6315 38.3751 63.7883C38.3797 63.945 38.4154 64.0992 38.4799 64.2421L41.4006 70.7611C41.6716 71.3635 42.3744 71.628 42.9755 71.3635L48.0448 69.0941L47.9862 69.1507C48.2215 69.0519 48.4821 69.0298 48.7307 69.0874C48.9792 69.1451 49.2033 69.2796 49.371 69.4719C51.206 71.94 53.4643 74.063 56.0408 75.7424C56.417 76.0458 56.5695 76.5234 56.4459 76.9886L54.4423 82.2395C54.3859 82.3852 54.3588 82.5406 54.3625 82.6968C54.3662 82.853 54.4007 83.0068 54.4641 83.1496C54.5274 83.2924 54.6182 83.4213 54.7315 83.529C54.8447 83.6366 54.9781 83.7208 55.124 83.7767L61.7979 86.3262C61.9441 86.3827 62.0998 86.4096 62.2564 86.4055C62.413 86.4015 62.5675 86.3665 62.7105 86.3025C62.8535 86.2385 62.9823 86.1468 63.0897 86.0328C63.1972 85.9187 63.2809 85.7845 63.3362 85.6379L65.3258 80.425L65.2662 80.5222C65.3667 80.2747 65.5455 80.067 65.7754 79.931C66.0053 79.7949 66.2735 79.7381 66.5388 79.7691C69.5174 80.2073 72.5813 80.1322 75.6087 79.5067C76.0988 79.4653 76.5777 79.6934 76.8097 80.1456L79.0727 85.2137C79.345 85.8095 80.0466 86.0806 80.6477 85.8161L87.1732 82.8968C87.4602 82.7675 87.6842 82.5295 87.7957 82.2351C87.9072 81.9407 87.8971 81.6141 87.7678 81.3271L85.5381 76.3334C85.4262 76.076 85.4071 75.7877 85.4839 75.5177C85.5607 75.2477 85.7288 75.0127 85.9595 74.8526C88.4458 72.9819 90.5395 70.7163 92.184 68.1739C92.179 68.2001 92.1232 68.2777 92.1456 68.3024C92.2968 68.0997 92.5083 67.9499 92.7497 67.8745C92.9911 67.799 93.2501 67.8018 93.4898 67.8823L93.4885 67.8888L98.611 69.854C98.7568 69.9095 98.9123 69.9356 99.0683 69.931C99.2242 69.9263 99.3778 69.8909 99.5201 69.8268C99.6624 69.7628 99.7905 69.6713 99.8974 69.5577C100.004 69.444 100.088 69.3104 100.143 69.1645L102.692 62.4906C102.803 62.1961 102.793 61.8702 102.666 61.5827C102.538 61.2953 102.303 61.0694 102.011 60.9535L96.887 58.9948C96.6352 58.8891 96.427 58.7008 96.2966 58.4608C96.1663 58.2208 96.1217 57.9437 96.1702 57.6749C96.181 57.7246 96.1293 57.8164 96.1023 57.8859C96.5817 54.8079 96.5034 51.6687 95.8713 48.6184C95.8534 48.1124 96.0631 47.6231 96.5456 47.4105L96.4724 47.4371L101.542 45.1677C101.684 45.1043 101.813 45.0133 101.92 44.9001C102.027 44.7869 102.111 44.6537 102.167 44.508C102.223 44.3624 102.25 44.2071 102.246 44.0512C102.241 43.8953 102.206 43.7417 102.143 43.5992L99.2301 37.0749C99.167 36.9305 99.0757 36.8002 98.9616 36.6915C98.8476 36.5828 98.713 36.4978 98.5658 36.4416C98.4186 36.3854 98.2617 36.3591 98.1042 36.3642C97.9468 36.3693 97.7918 36.4057 97.6486 36.4713L92.5638 38.7513C92.3217 38.8345 92.0593 38.8382 91.815 38.7618C91.5707 38.6854 91.3573 38.5329 91.2058 38.3265C89.3952 35.8985 87.1735 33.8061 84.6412 32.1443C84.4362 31.9875 84.2858 31.77 84.2116 31.5228C84.1373 31.2756 84.1428 31.0113 84.2274 30.7674L84.1782 30.8462L86.1792 25.6084C86.2357 25.4622 86.2628 25.3063 86.2587 25.1497C86.2546 24.9931 86.2195 24.8388 86.1555 24.6958C86.0915 24.5528 85.9999 24.4238 85.8858 24.3164C85.7717 24.2089 85.6376 24.1252 85.491 24.0699L78.8172 21.5205C78.6716 21.4638 78.516 21.4371 78.3598 21.4421C78.2036 21.447 78.0502 21.4834 77.9085 21.5491C77.7648 21.6115 77.635 21.7019 77.5268 21.8152C77.4187 21.9285 77.3344 22.0624 77.2787 22.2088L75.2892 27.4217C75.1756 27.6529 74.9915 27.842 74.7633 27.9617C74.5352 28.0813 74.2748 28.1252 74.02 28.087L74.0187 28.0936C71.0141 27.647 67.9547 27.7309 64.9791 28.3414C64.4692 28.379 63.9573 28.1445 63.7381 27.6608L61.4927 22.6437C61.3634 22.3552 61.1251 22.1298 60.8298 22.0169C60.5346 21.904 60.2065 21.9128 59.9177 22.0414L53.5199 24.8969ZM66.5005 45.1857C68.807 44.1537 71.429 44.08 73.7898 44.9807C76.1507 45.8815 78.0571 47.6829 79.09 49.9891C80.122 52.2956 80.1957 54.9174 79.295 57.2783C78.3942 59.6392 76.5927 61.5457 74.2866 62.5785C71.9801 63.6106 69.3581 63.6844 66.9972 62.7836C64.6364 61.8829 62.73 60.0814 61.6971 57.7753C60.6651 55.4688 60.5914 52.8468 61.4921 50.4859C62.3929 48.1251 64.1944 46.2186 66.5005 45.1857V45.1857ZM31.4897 63.5469C31.3909 63.4992 31.2837 63.4714 31.1742 63.4652C31.0647 63.459 30.9552 63.4744 30.8517 63.5106C30.7482 63.5468 30.6528 63.603 30.5711 63.6761C30.4893 63.7492 30.4228 63.8377 30.3754 63.9366L28.6864 67.4144C28.52 67.7491 28.1378 67.8995 27.7777 67.8301L27.77 67.8355C25.6398 67.3299 23.4757 67.2116 21.3679 67.4709C21.2042 67.4697 21.0445 67.4203 20.9088 67.329C20.773 67.2376 20.667 67.1081 20.6043 66.957L19.3308 63.275C19.2957 63.1713 19.2401 63.0757 19.1671 62.994C19.0942 62.9122 19.0055 62.846 18.9064 62.7994C18.7069 62.705 18.479 62.6903 18.2691 62.7581L13.5393 64.3934C13.3323 64.4669 13.1629 64.6191 13.0676 64.8169C12.9722 65.0147 12.9588 65.2422 13.0301 65.4498L14.2982 69.09L14.2945 69.1096C14.4147 69.4724 14.2603 69.8502 13.9545 70.0629L13.9519 70.076C12.1099 71.1981 10.4822 72.6391 9.1451 74.3316C9.03258 74.44 8.89218 74.5149 8.73947 74.5478C8.58675 74.5808 8.42771 74.5705 8.28051 74.5181L4.75416 72.7994C4.65544 72.7517 4.54838 72.724 4.43891 72.7177C4.32944 72.7115 4.21967 72.7269 4.11616 72.7631C4.01266 72.7993 3.91747 72.8555 3.83575 72.9287C3.75403 73.0018 3.68752 73.0902 3.64006 73.1891L1.45598 77.6853C1.35956 77.8837 1.34559 78.1124 1.41741 78.321C1.48924 78.5296 1.64088 78.7012 1.83904 78.7982L5.33533 80.4975L5.26978 80.4849C5.42685 80.5678 5.55385 80.698 5.63289 80.8571C5.71193 81.0161 5.73896 81.196 5.71018 81.3713C5.21237 83.4962 5.10072 85.6615 5.36007 87.7694C5.36352 87.9333 5.31897 88.0946 5.23187 88.2335C5.14476 88.3724 5.01899 88.4827 4.86994 88.551L1.15257 89.8314C1.0488 89.867 0.953196 89.9227 0.87101 89.9953C0.788823 90.068 0.721671 90.1562 0.673637 90.2548C0.625604 90.3535 0.597447 90.4606 0.59091 90.5701C0.584373 90.6796 0.599662 90.7894 0.635622 90.893L2.27094 95.6228C2.42442 96.0599 2.8902 96.2854 3.32727 96.132L7.02233 94.8609L6.99923 94.9108C7.1777 94.8526 7.3704 94.8549 7.54745 94.9172C7.72451 94.9796 7.87599 95.0986 7.9786 95.2558C9.08591 97.0516 10.5019 98.6557 12.1998 99.9948C12.4435 100.246 12.5376 100.603 12.3999 100.93L10.7072 104.427C10.6108 104.626 10.5968 104.854 10.6686 105.063C10.7405 105.272 10.8921 105.443 11.0903 105.54L15.5864 107.724C15.6852 107.772 15.7924 107.8 15.9019 107.806C16.0114 107.812 16.1209 107.797 16.2245 107.761C16.328 107.724 16.4233 107.668 16.5051 107.595C16.5868 107.522 16.6533 107.434 16.7008 107.335L18.3755 103.895C18.4634 103.72 18.6091 103.58 18.7879 103.499C18.9667 103.419 19.1678 103.402 19.3574 103.452C21.4836 103.944 23.637 104.046 25.7448 103.787C25.7345 103.805 25.6521 103.81 25.6496 103.823L25.6562 103.824C25.8327 103.815 26.0076 103.861 26.1563 103.957C26.3049 104.053 26.4195 104.193 26.4839 104.357L26.4826 104.364L27.7324 107.994C27.8793 108.429 28.3516 108.656 28.7887 108.503L33.5183 106.868C33.9541 106.721 34.1811 106.248 34.0276 105.811L32.7779 102.181C32.7228 101.999 32.7302 101.804 32.7988 101.626C32.8675 101.449 32.9936 101.299 33.157 101.202C33.1441 101.233 33.0552 101.236 33.0109 101.255C34.8564 100.137 36.4994 98.6945 37.8723 96.9623C37.9927 96.8371 38.1489 96.7524 38.3194 96.7195C38.4899 96.6867 38.6662 96.7075 38.8244 96.7791L38.8257 96.7725L42.3232 98.4653C42.4217 98.5141 42.529 98.5429 42.6387 98.5501C42.7484 98.5574 42.8583 98.5427 42.9624 98.5072C43.0665 98.4717 43.1624 98.4161 43.2448 98.3433C43.3272 98.2706 43.3945 98.1822 43.4427 98.0834L45.6267 93.5872C45.6744 93.4885 45.7022 93.3812 45.7085 93.2718C45.7147 93.1623 45.6993 93.0527 45.663 92.9492C45.6268 92.8457 45.5705 92.7503 45.4974 92.6686C45.4243 92.5869 45.3359 92.5205 45.2371 92.473L41.7291 90.7646C41.5753 90.6729 41.4549 90.5346 41.3853 90.3697C41.3156 90.2048 41.3004 90.022 41.342 89.8479C41.8279 87.7844 41.9492 85.6518 41.7006 83.5464C41.6935 83.3653 41.7435 83.1865 41.8433 83.0352C41.9431 82.8839 42.0879 82.7677 42.2572 82.7029L42.1825 82.7021L45.8933 81.4205C46.3291 81.2735 46.5561 80.8011 46.4026 80.3641L44.7673 75.6344C44.7315 75.531 44.6755 75.4356 44.6026 75.354C44.5298 75.2723 44.4414 75.2059 44.3426 75.1587C44.2444 75.1102 44.1376 75.0816 44.0283 75.0746C43.9189 75.0675 43.8091 75.082 43.7054 75.1173L40.0157 76.3962C39.8399 76.4404 39.6545 76.427 39.4869 76.358C39.3192 76.289 39.1781 76.1681 39.0843 76.0129L39.0818 76.026C37.9671 74.2131 36.5428 72.6099 34.8738 71.2895L34.875 71.283C34.7439 71.1616 34.6543 71.0023 34.6186 70.8272C34.5829 70.6522 34.6028 70.4704 34.6759 70.3074L36.3613 66.8492C36.409 66.7505 36.4367 66.6433 36.443 66.5339C36.4492 66.4244 36.4338 66.3148 36.3976 66.2113C36.3614 66.1078 36.3051 66.0124 36.2319 65.9307C36.1588 65.849 36.0703 65.7824 35.9714 65.735L31.4897 63.5469ZM26.4532 79.6367C27.2411 80.0195 27.9457 80.5537 28.5271 81.2088C29.1085 81.8639 29.5551 82.6272 29.8415 83.4549C30.1278 84.2827 30.2483 85.1588 30.196 86.0331C30.1438 86.9074 29.9199 87.763 29.5369 88.5508C28.7642 90.1404 27.392 91.3582 25.7218 91.9367C24.0516 92.5152 22.2199 92.407 20.6295 91.6358C19.8409 91.2536 19.1355 90.7198 18.5533 90.0648C17.9711 89.4098 17.5237 88.6465 17.2367 87.8186C16.9497 86.9906 16.8287 86.1142 16.8806 85.2395C16.9326 84.3647 17.1563 83.5087 17.5392 82.7205C17.9219 81.9326 18.4562 81.2279 19.1113 80.6466C19.7665 80.0652 20.5297 79.6186 21.3575 79.3322C22.1852 79.0459 23.0612 78.9253 23.9356 78.9775C24.8099 79.0298 25.6654 79.2538 26.4532 79.6367Z" fill="white"/>
</g>
<defs>
<clipPath id="clip0">
<rect width="179" height="179" fill="white"/>
</clipPath>
</defs>
</svg>
