<svg width="64" height="64" viewBox="0 0 64 64" fill="none" xmlns="http://www.w3.org/2000/svg">
<rect opacity="0.5" x="6.06198" y="6.06198" width="51.876" height="51.876" rx="4.5" stroke="#0E141F"/>
<rect x="6.46727" y="6.4641" width="51.0656" height="51.0686" rx="4" fill="url(#paint0_linear)"/>
<rect opacity="0.5" x="6.97202" y="6.96629" width="50.0621" height="50.0672" rx="3.5" stroke="url(#paint1_linear)" stroke-linecap="round" stroke-linejoin="round"/>
<path d="M37.312 19.031H19.6521V23.9861H35.1046C39.5195 23.9861 39.5195 30.593 35.1046 30.593H27.9302V36.0987H37.312C47.7976 36.0987 48.3495 19.031 37.312 19.031Z" fill="black" fill-opacity="0.25"/>
<path d="M45.5901 39.9527H37.8639C37.8639 43.2561 35.1046 43.2561 35.1046 43.2561H19.6521V48.2113H37.312C41.727 48.2113 45.5901 46.009 45.5901 39.9527Z" fill="black" fill-opacity="0.25"/>
<path d="M36.6909 17.4099H19.031V22.365H34.4834C38.8984 22.365 38.8984 28.9719 34.4834 28.9719H27.3091V34.4776H36.6909C47.1765 34.4776 47.7284 17.4099 36.6909 17.4099Z" fill="#D7D7D7"/>
<path d="M44.969 38.3316H37.2428C37.2428 41.635 34.4834 41.635 34.4834 41.635H19.031V46.5901H36.6909C41.1059 46.5901 44.969 44.3879 44.969 38.3316Z" fill="#D7D7D7"/>
<defs>
<linearGradient id="paint0_linear" x1="32" y1="6.42893" x2="32" y2="57.5262" gradientUnits="userSpaceOnUse">
<stop stop-color="#5A5A5A"/>
<stop offset="1" stop-color="#333333"/>
</linearGradient>
<linearGradient id="paint1_linear" x1="24.8513" y1="6.73683" x2="24.8513" y2="57.2395" gradientUnits="userSpaceOnUse">
<stop stop-color="white"/>
<stop offset="0.0631645" stop-color="white" stop-opacity="0.235294"/>
<stop offset="0.950563" stop-color="white" stop-opacity="0.156863"/>
<stop offset="1" stop-color="white" stop-opacity="0.392157"/>
</linearGradient>
</defs>
</svg>
