<svg width="24" height="24" viewBox="0 0 24 24" fill="none" xmlns="http://www.w3.org/2000/svg">
<g clip-path="url(#clip0_303_2)">
<path fill-rule="evenodd" clip-rule="evenodd" d="M16.7623 18.2926C19.7694 17.9336 22.3877 16.0807 22.7168 14.3878C23.2353 11.7208 23.1925 7.87958 23.1925 7.87958C23.1925 2.67325 19.7814 1.14719 19.7814 1.14719C18.0616 0.357269 15.1082 0.0250852 12.04 0H11.9646C8.8963 0.0250852 5.94491 0.357269 4.2249 1.14719C4.2249 1.14719 0.813706 2.67325 0.813706 7.87958C0.813706 8.19521 0.812074 8.52719 0.810376 8.87279C0.80566 9.83259 0.800427 10.8974 0.828188 12.0089C0.952062 17.1004 1.76164 22.1184 6.46911 23.3644C8.63963 23.9389 10.5032 24.0591 12.004 23.9766C14.7257 23.8257 16.2536 23.0053 16.2536 23.0053L16.1639 21.0305C16.1639 21.0305 14.2189 21.6438 12.0345 21.5691C9.87035 21.4949 7.58566 21.3357 7.23563 18.6786C7.20331 18.4452 7.18714 18.1957 7.18714 17.9336C7.18714 17.9336 9.31162 18.4528 12.004 18.5762C13.6503 18.6517 15.1942 18.4797 16.7623 18.2926ZM19.1689 14.5875V8.28346C19.1689 6.99507 18.8409 5.97123 18.1821 5.21376C17.5024 4.4563 16.6126 4.06799 15.5081 4.06799C14.2299 4.06799 13.262 4.55922 12.6222 5.54181L12 6.58465L11.3779 5.54181C10.738 4.55922 9.77014 4.06799 8.49209 4.06799C7.38744 4.06799 6.49757 4.4563 5.81807 5.21376C5.15913 5.97123 4.83109 6.99507 4.83109 8.28346V14.5875H7.32861V8.46876C7.32861 7.17894 7.8713 6.52427 8.95682 6.52427C10.157 6.52427 10.7587 7.30087 10.7587 8.8365V12.1856H13.2415V8.8365C13.2415 7.30087 13.843 6.52427 15.0432 6.52427C16.1287 6.52427 16.6714 7.17894 16.6714 8.46876V14.5875H19.1689Z" fill="#888888"/>
</g>
<defs>
<clipPath id="clip0_303_2">
<rect width="24" height="24" fill="white"/>
</clipPath>
</defs>
</svg>
